<svg width="256" height="256" viewBox="0 0 256 256" fill="none" xmlns="http://www.w3.org/2000/svg">
<path d="M128 256C198.692 256 256 198.692 256 128C256 57.3076 198.692 0 128 0C57.3076 0 0 57.3076 0 128C0 198.692 57.3076 256 128 256Z" fill="#382B73"/>
<path d="M128 237.333C188.383 237.333 237.334 188.383 237.334 128C237.334 67.6167 188.383 18.6665 128 18.6665C67.6172 18.6665 18.667 67.6167 18.667 128C18.667 188.383 67.6172 237.333 128 237.333Z" fill="#473080"/>
<path d="M189.515 124.004C203.933 109.586 203.933 86.126 189.515 71.7079C175.097 57.2898 151.636 57.2898 137.218 71.7079L129.424 79.502C115.043 69.7527 95.264 71.2428 82.5344 83.9724L59.152 107.355C44.7338 121.773 44.7338 145.233 59.152 159.651C66.4949 166.994 76.1845 170.597 85.8293 170.461C85.6096 172.212 85.4954 173.996 85.4954 175.807C85.4954 199.281 104.525 218.311 127.999 218.311C151.473 218.311 170.502 199.281 170.502 175.807C170.502 166.424 167.461 157.751 162.311 150.718C163.642 149.709 164.918 148.599 166.131 147.386L189.515 124.004ZM69.2096 149.594C65.952 146.336 63.8901 142.328 63.025 138.121C62.9877 137.941 62.9536 137.762 62.9216 137.582C62.9056 137.492 62.8896 137.402 62.8746 137.312C62.8437 137.132 62.816 136.952 62.7904 136.771C62.7648 136.591 62.7402 136.41 62.7189 136.228C62.6976 136.047 62.6773 135.866 62.6602 135.684C62.6517 135.594 62.6432 135.503 62.6357 135.412C62.6208 135.231 62.6069 135.049 62.5962 134.867C62.4394 132.231 62.7381 129.571 63.4912 127.02C63.5434 126.844 63.5978 126.668 63.6533 126.493C63.7098 126.318 63.7685 126.144 63.8293 125.97C63.8901 125.796 63.953 125.624 64.0181 125.451C64.1482 125.106 64.2869 124.763 64.4341 124.424C65.5392 121.876 67.1306 119.491 69.2106 117.411L92.593 94.029C99.7429 86.8791 110.508 85.4914 119.06 89.8658L113.837 95.0892C102.065 106.861 99.905 124.66 107.356 138.644C100.274 142.587 94.4373 148.495 90.5813 155.631C83.1477 157.393 74.9952 155.38 69.2096 149.594V149.594ZM147.909 81.1564C148.051 81.0242 148.196 80.894 148.341 80.766C148.777 80.3831 149.223 80.0183 149.68 79.6748C150.213 79.2727 150.759 78.8972 151.318 78.5495C151.638 78.35 151.961 78.1591 152.288 77.9778C152.451 77.8871 152.615 77.7986 152.781 77.7111C153.524 77.3207 154.284 76.9751 155.057 76.6732C155.229 76.606 155.402 76.541 155.574 76.478C155.661 76.446 155.748 76.4162 155.835 76.3852C156.009 76.3244 156.182 76.2658 156.357 76.2103C156.532 76.1538 156.708 76.0994 156.884 76.0482C157.148 75.9703 157.413 75.8967 157.679 75.8284C157.767 75.806 157.857 75.7836 157.946 75.7612C158.747 75.566 159.555 75.4156 160.369 75.3079C160.64 75.2716 160.912 75.2418 161.184 75.2151C161.819 75.1543 162.455 75.1202 163.093 75.1127C163.276 75.1106 163.458 75.1106 163.639 75.1127C163.913 75.1159 164.186 75.1244 164.459 75.1372C164.64 75.1458 164.822 75.1564 165.004 75.1692C165.185 75.182 165.367 75.197 165.549 75.2151C165.639 75.2236 165.73 75.2332 165.821 75.2428C166.183 75.2823 166.545 75.3292 166.906 75.3858C166.996 75.3996 167.086 75.4146 167.175 75.4295C167.356 75.4594 167.535 75.4924 167.714 75.5266C167.893 75.5618 168.073 75.598 168.252 75.6375C169.413 75.8914 170.558 76.2359 171.676 76.6722C172.019 76.8066 172.361 76.9495 172.7 77.101C173.292 77.3666 173.874 77.6578 174.446 77.9767C174.691 78.1132 174.934 78.254 175.174 78.4012C176.139 78.9858 177.068 79.6492 177.953 80.3895C178.027 80.4514 178.1 80.5132 178.174 80.5762C178.394 80.765 178.61 80.958 178.825 81.1564C179.039 81.3548 179.249 81.5575 179.457 81.7655C179.734 82.0428 180.003 82.3255 180.262 82.6135C180.588 82.973 180.899 83.341 181.197 83.7164C181.494 84.0919 181.779 84.4738 182.05 84.8631C182.159 85.0188 182.265 85.1756 182.369 85.3324C182.525 85.5692 182.676 85.8082 182.822 86.0482C183.261 86.7714 183.655 87.5127 184.006 88.27C184.045 88.3543 184.083 88.4386 184.122 88.5228C184.236 88.7767 184.345 89.0316 184.448 89.2887C184.517 89.4604 184.585 89.6322 184.65 89.805C184.715 89.9778 184.778 90.1506 184.838 90.3244C184.929 90.5847 185.015 90.8471 185.097 91.1106C185.145 91.2663 185.19 91.4231 185.235 91.5788C185.266 91.6866 185.296 91.7943 185.325 91.9031C185.348 91.9916 185.372 92.0802 185.395 92.1687C185.422 92.2743 185.449 92.3799 185.474 92.4866C185.513 92.6476 185.55 92.8087 185.585 92.9698C185.623 93.149 185.661 93.3271 185.696 93.5074C185.731 93.6866 185.763 93.8668 185.793 94.046C185.808 94.1356 185.823 94.2263 185.837 94.3159C185.893 94.6764 185.941 95.038 185.98 95.4007C185.989 95.4914 185.999 95.582 186.007 95.6727C186.042 96.0354 186.068 96.3991 186.085 96.7628C186.09 96.8567 186.094 96.9505 186.097 97.0433C186.116 97.5863 186.116 98.1303 186.097 98.6743C186.087 98.9474 186.073 99.2204 186.053 99.4924C186.001 100.219 185.915 100.944 185.793 101.664C185.778 101.754 185.762 101.844 185.746 101.934C185.713 102.113 185.679 102.293 185.643 102.473C185.625 102.562 185.605 102.652 185.586 102.74C185.372 103.723 185.091 104.695 184.746 105.647C184.715 105.733 184.683 105.82 184.65 105.906C184.324 106.769 183.946 107.616 183.513 108.442C183.339 108.772 183.157 109.099 182.966 109.422C182.681 109.906 182.375 110.383 182.05 110.85C181.996 110.928 181.941 111.006 181.886 111.083C181.775 111.237 181.663 111.391 181.548 111.543C181.433 111.695 181.316 111.847 181.197 111.996C181.077 112.146 180.956 112.295 180.833 112.443C180.771 112.516 180.709 112.59 180.646 112.664C180.521 112.81 180.393 112.955 180.263 113.099C180.003 113.387 179.734 113.669 179.457 113.947L156.075 137.329C154.783 138.621 153.372 139.725 151.878 140.64C147.377 137.578 142.257 135.357 136.745 134.204C136.767 134.178 136.788 134.153 136.811 134.126C136.876 134.049 136.941 133.972 137.006 133.896C137.035 133.86 137.065 133.825 137.094 133.791C137.178 133.691 137.261 133.591 137.343 133.49C137.35 133.481 137.359 133.471 137.366 133.461C137.456 133.352 137.545 133.242 137.632 133.132C137.662 133.095 137.691 133.057 137.721 133.02C137.779 132.945 137.838 132.871 137.897 132.796C137.931 132.752 137.965 132.708 137.999 132.664C138.053 132.592 138.109 132.521 138.163 132.449C138.195 132.407 138.227 132.365 138.259 132.323C138.334 132.224 138.407 132.125 138.481 132.025C138.491 132.012 138.5 131.999 138.509 131.986C138.591 131.874 138.672 131.761 138.753 131.649C138.782 131.609 138.811 131.568 138.839 131.529C138.894 131.453 138.947 131.376 139.001 131.299C139.031 131.255 139.063 131.21 139.094 131.165C139.146 131.092 139.196 131.019 139.246 130.945C139.276 130.901 139.306 130.858 139.335 130.814C139.392 130.73 139.449 130.645 139.505 130.56C139.529 130.524 139.553 130.489 139.577 130.452C139.649 130.343 139.721 130.233 139.791 130.123C139.82 130.079 139.847 130.034 139.875 129.991C139.922 129.917 139.969 129.843 140.015 129.77C140.046 129.721 140.077 129.672 140.107 129.623C140.151 129.551 140.195 129.479 140.239 129.407C140.269 129.358 140.299 129.31 140.329 129.261C140.374 129.185 140.42 129.108 140.465 129.033C140.501 128.972 140.537 128.911 140.573 128.85C140.628 128.755 140.684 128.661 140.738 128.567C140.771 128.509 140.803 128.451 140.836 128.395C140.871 128.334 140.906 128.272 140.94 128.211C140.974 128.149 141.008 128.088 141.042 128.026C141.075 127.966 141.108 127.906 141.14 127.847C141.173 127.786 141.206 127.726 141.238 127.665C141.275 127.598 141.31 127.531 141.345 127.464C141.392 127.375 141.438 127.287 141.485 127.198C141.524 127.122 141.564 127.048 141.602 126.972C141.638 126.903 141.673 126.832 141.708 126.762C141.733 126.711 141.759 126.66 141.785 126.609C141.82 126.54 141.854 126.469 141.888 126.4C141.914 126.347 141.94 126.292 141.966 126.239C141.999 126.172 142.031 126.105 142.063 126.036C142.09 125.981 142.115 125.925 142.142 125.869C142.224 125.695 142.304 125.52 142.383 125.345C142.383 125.344 142.383 125.344 142.384 125.343C142.42 125.264 142.454 125.184 142.49 125.105C142.509 125.061 142.528 125.018 142.547 124.975C142.581 124.897 142.614 124.82 142.647 124.743C142.667 124.698 142.686 124.653 142.705 124.607C142.738 124.529 142.771 124.451 142.803 124.373C142.819 124.334 142.835 124.296 142.851 124.256C142.969 123.972 143.081 123.688 143.19 123.403C143.201 123.374 143.213 123.345 143.223 123.316C143.257 123.228 143.29 123.14 143.323 123.052C143.335 123.019 143.347 122.986 143.36 122.953C143.394 122.861 143.427 122.769 143.46 122.677C143.467 122.66 143.472 122.643 143.478 122.627C143.594 122.304 143.705 121.98 143.811 121.655C143.812 121.65 143.813 121.647 143.814 121.643C143.85 121.537 143.883 121.432 143.916 121.326C143.92 121.311 143.925 121.296 143.93 121.281C147.242 110.759 145.746 99.037 139.443 89.597L147.273 81.7666C147.484 81.5575 147.695 81.3538 147.909 81.1564V81.1564ZM130.716 104.455L130.711 104.459C132.214 110.345 131.337 116.718 128.075 122.031C128.074 122.032 128.073 122.034 128.073 122.035C127.881 122.348 127.681 122.656 127.472 122.961C127.462 122.974 127.454 122.988 127.445 123.001C127.385 123.089 127.323 123.179 127.26 123.266C127.252 123.277 127.245 123.288 127.237 123.297C127.101 123.49 126.96 123.681 126.816 123.871C126.8 123.892 126.783 123.914 126.767 123.936C126.711 124.01 126.655 124.082 126.597 124.155C126.579 124.177 126.562 124.2 126.544 124.222C126.473 124.313 126.4 124.402 126.327 124.493C126.321 124.5 126.316 124.508 126.309 124.514C126.242 124.596 126.174 124.679 126.106 124.76C126.084 124.785 126.062 124.811 126.041 124.836C125.985 124.901 125.93 124.965 125.874 125.029C125.851 125.056 125.827 125.083 125.805 125.109C125.729 125.195 125.653 125.281 125.578 125.365C125.57 125.374 125.563 125.381 125.555 125.39C125.486 125.467 125.415 125.544 125.344 125.619C125.316 125.648 125.29 125.678 125.262 125.707C125.209 125.764 125.154 125.821 125.1 125.877C125.071 125.907 125.042 125.937 125.014 125.967C124.94 126.044 124.865 126.12 124.789 126.195C124.784 126.201 124.779 126.206 124.773 126.212L119.61 131.376C119.477 131.109 119.35 130.842 119.23 130.572C119.078 130.234 118.935 129.892 118.801 129.549C118.532 128.861 118.299 128.163 118.099 127.457C118.049 127.281 118.002 127.104 117.956 126.926C117.888 126.659 117.824 126.393 117.766 126.125C117.727 125.946 117.691 125.768 117.657 125.587C117.621 125.408 117.589 125.228 117.558 125.048C117.543 124.958 117.529 124.867 117.515 124.778C117.458 124.417 117.411 124.056 117.372 123.693C117.362 123.602 117.353 123.512 117.344 123.421C117.327 123.24 117.311 123.058 117.298 122.876C117.285 122.695 117.275 122.512 117.265 122.331C117.252 122.058 117.244 121.785 117.241 121.512C117.238 121.329 117.238 121.148 117.241 120.965C117.248 120.328 117.282 119.691 117.343 119.056C117.386 118.603 117.443 118.151 117.514 117.699C117.598 117.159 117.702 116.62 117.825 116.085C117.969 115.461 118.14 114.843 118.337 114.231C118.394 114.056 118.451 113.882 118.512 113.708C118.543 113.621 118.573 113.534 118.605 113.448C118.668 113.275 118.733 113.102 118.8 112.93C119.908 110.094 121.605 107.437 123.893 105.149L129.057 99.9852C129.772 101.423 130.324 102.922 130.716 104.455V104.455Z" fill="#382B73"/>
<path d="M59.152 152.184C44.7338 137.766 44.7338 114.306 59.152 99.8879L82.5344 76.5055C96.9525 62.0874 120.413 62.0874 134.831 76.5055C149.249 90.9236 149.249 114.384 134.831 128.802L111.448 152.184C97.0304 166.603 73.5701 166.603 59.152 152.184V152.184ZM124.773 86.5642C115.901 77.6916 101.464 77.6916 92.592 86.5642L69.2096 109.947C60.337 118.819 60.337 133.255 69.2096 142.128C78.0821 151 92.5184 151 101.391 142.128L124.773 118.745C133.646 109.873 133.646 95.4356 124.773 86.5642V86.5642Z" fill="#EF5A9D"/>
<path d="M129.784 81.5521C118.396 70.1633 100.609 69.4177 90.1364 79.8902L62.5364 107.49C52.0639 117.963 52.8095 135.749 64.1983 147.138C75.5871 158.527 93.3738 159.273 103.846 148.8L131.446 121.2C141.919 110.728 141.173 92.9419 129.784 81.5521ZM101.391 142.128C92.5183 151.001 78.082 151.001 69.2095 142.128C60.337 133.256 60.337 118.819 69.2095 109.947L92.5919 86.5643C101.464 77.6918 115.901 77.6918 124.773 86.5643C133.646 95.4369 133.646 109.873 124.773 118.746L101.391 142.128Z" fill="#E43D91"/>
<path d="M113.836 139.92C99.4174 125.502 99.4174 102.042 113.836 87.6235L137.218 64.2411C151.636 49.823 175.096 49.823 189.514 64.2411C203.933 78.6592 203.933 102.119 189.514 116.538L166.132 139.92C151.714 154.338 128.254 154.338 113.836 139.92ZM179.457 74.2987C170.584 65.4262 156.148 65.4262 147.276 74.2987L123.893 97.6811C115.021 106.554 115.021 120.99 123.893 129.862C132.766 138.735 147.202 138.735 156.075 129.862L179.457 106.48C188.329 97.6075 188.329 83.1712 179.457 74.2987V74.2987Z" fill="#1CAEE4"/>
<path d="M184.237 69.5191C172.735 58.0172 154.917 57.1191 144.518 67.518L117.113 94.9228C106.715 105.322 107.613 123.139 119.115 134.641C130.616 146.143 148.434 147.041 158.833 136.642L186.238 109.237C196.637 98.8396 195.739 81.0209 184.237 69.5191ZM156.075 129.863C147.202 138.735 132.766 138.735 123.893 129.863C115.021 120.99 115.021 106.554 123.893 97.6812L147.276 74.2988C156.148 65.4263 170.584 65.4263 179.457 74.2988C188.329 83.1713 188.329 97.6076 179.457 106.48L156.075 129.863Z" fill="#009ADD"/>
<path d="M141.701 86.0032L130.712 96.992C132.635 104.526 130.659 112.86 124.773 118.746L103.349 140.17L113.406 150.227L134.83 128.803C146.392 117.242 148.681 99.8677 141.701 86.0032V86.0032Z" fill="#EF5A9D"/>
<path d="M136.412 91.2917L130.713 96.9909C132.636 104.525 130.659 112.859 124.774 118.745L103.35 140.169L107.914 144.733L131.447 121.2C139.247 113.399 140.822 101.541 136.412 91.2917V91.2917Z" fill="#E43D91"/>
<path d="M169.91 175.121C173.666 151.952 157.929 130.125 134.76 126.369C111.591 122.613 89.7644 138.351 86.0086 161.52C82.2527 184.688 97.9901 206.515 121.159 210.271C144.328 214.027 166.155 198.29 169.91 175.121Z" fill="white"/>
<path d="M156.889 167.097C156.798 166.856 156.685 166.622 156.547 166.401C156.538 166.425 156.527 166.448 156.517 166.472C156.332 166.234 156.11 166.029 155.858 165.855C155.163 165.377 154.237 165.144 153.198 165.154C150.868 165.177 149.277 166.51 147.953 168.274C145.567 171.456 144.828 172.776 141.788 174.938V146.452C141.788 144.122 140.037 142.2 137.78 141.929C137.779 141.929 137.778 141.929 137.778 141.929C137.744 141.924 137.711 141.921 137.677 141.918C137.668 141.917 137.66 141.917 137.651 141.916C137.623 141.914 137.596 141.91 137.568 141.908C137.554 141.907 137.539 141.906 137.525 141.905C137.504 141.904 137.482 141.902 137.46 141.901C137.438 141.9 137.415 141.899 137.393 141.899C137.378 141.898 137.362 141.898 137.346 141.897C137.309 141.896 137.27 141.896 137.233 141.896C134.717 141.896 132.676 143.936 132.676 146.452V143.524C132.676 141.194 130.926 139.272 128.668 139.001C128.667 139.001 128.666 139.001 128.666 139.001C128.631 138.996 128.598 138.993 128.564 138.99C128.556 138.989 128.547 138.989 128.539 138.988C128.511 138.986 128.483 138.982 128.455 138.98C128.442 138.979 128.427 138.978 128.413 138.977C128.391 138.976 128.369 138.974 128.348 138.973C128.325 138.972 128.303 138.971 128.281 138.971C128.266 138.97 128.25 138.97 128.234 138.969C128.196 138.968 128.159 138.968 128.121 138.968C125.603 138.968 123.564 141.008 123.564 143.524V149.167C123.564 146.864 121.697 144.997 119.393 144.997C119.357 144.997 119.322 144.997 119.285 144.998C117.346 145.044 115.735 146.316 115.325 148.249C115.258 148.544 115.223 148.851 115.223 149.168V154.15C115.223 152.043 113.515 150.334 111.407 150.334C109.824 150.334 108.467 151.182 107.888 152.669C107.696 153.124 107.589 153.625 107.589 154.15V189.664C107.589 190.239 107.626 190.804 107.695 191.358C108.173 195.618 110.261 198.625 113.183 200.227C114.617 201.084 116.245 201.568 117.974 201.568H132.975C137.021 201.568 140.515 199.083 142.656 195.777C143.079 195.123 143.451 194.436 143.821 193.75C144.926 191.706 146.02 189.665 147.221 187.675C147.778 186.753 148.33 185.83 148.878 184.905C149.243 184.288 149.606 183.67 149.967 183.052C150.147 182.742 150.327 182.433 150.508 182.123C151.764 179.954 152.996 177.773 154.198 175.572C154.542 174.944 154.883 174.314 155.222 173.682C155.392 173.366 155.561 173.05 155.729 172.733C156.354 171.555 156.991 170.341 157.133 169.016C157.211 168.266 157.118 167.627 156.889 167.097V167.097Z" fill="#D1D3D4"/>
<path d="M117.973 198.088H131.403C137.139 198.088 141.788 192.759 141.788 186.184V158.885L107.588 170.312V186.183C107.588 192.759 112.237 198.088 117.973 198.088Z" fill="#FEDE3A"/>
<path d="M137.232 138.418C139.748 138.418 141.789 140.459 141.789 142.975V171.713H132.675V142.975C132.675 140.457 134.716 138.418 137.232 138.418V138.418Z" fill="#FEDE3A"/>
<path d="M137.232 138.418C137.826 138.418 138.393 138.533 138.913 138.739C137.229 139.408 136.037 141.052 136.037 142.975V165.683H132.676V142.975C132.675 140.457 134.716 138.418 137.232 138.418V138.418Z" fill="#E7AD27"/>
<path d="M128.118 135.49C130.635 135.49 132.675 137.531 132.675 140.047V168.785H123.562V140.047C123.563 137.531 125.602 135.49 128.118 135.49Z" fill="#FEDE3A"/>
<path d="M128.118 135.49C128.712 135.49 129.279 135.605 129.799 135.811C128.115 136.48 126.924 138.124 126.924 140.047V165.683H123.562V140.047C123.562 137.531 125.602 135.49 128.118 135.49Z" fill="#E7AD27"/>
<path d="M119.392 141.52C121.695 141.52 123.562 143.387 123.562 145.69V174.815H115.222V145.69C115.223 143.387 117.089 141.52 119.392 141.52Z" fill="#FEDE3A"/>
<path d="M119.392 141.52C119.935 141.52 120.454 141.635 120.93 141.841C119.389 142.51 118.298 144.154 118.298 146.077V165.683H115.222V145.759C115.223 143.243 117.089 141.52 119.392 141.52V141.52Z" fill="#E7AD27"/>
<path d="M111.405 146.855C113.513 146.855 115.222 148.564 115.222 150.672V180.15H107.588V150.672C107.588 148.564 109.297 146.855 111.405 146.855Z" fill="#FEDE3A"/>
<path d="M111.406 146.855C111.903 146.855 112.378 146.971 112.814 147.177C111.403 147.845 110.404 149.489 110.404 151.412V180.15H107.589V150.877C107.588 148.359 109.297 146.855 111.406 146.855Z" fill="#E7AD27"/>
<path d="M155.859 162.378C156.775 163.006 157.289 164.059 157.131 165.537C156.99 166.863 156.352 168.077 155.727 169.254C153.036 174.322 150.187 179.281 147.219 184.196C146.086 186.075 145.003 187.998 143.812 189.841C142.783 191.435 142.057 191.331 140.396 190.414C138.5 189.368 136.767 187.955 135.533 186.163C133.872 183.75 133.201 180.552 134.238 177.812C134.978 175.857 136.534 174.261 138.386 173.292C139.322 172.802 140.338 172.459 141.21 171.864C144.744 169.452 145.422 168.173 147.952 164.798C149.276 163.034 150.867 161.7 153.197 161.678C154.238 161.666 155.164 161.9 155.859 162.378V162.378Z" fill="#FEDE3A"/>
<path d="M114.321 168.47C114.916 168.834 115.681 168.805 116.231 168.375C117.087 167.703 118.392 167.386 120.236 167.386H133.369C133.53 167.386 133.698 167.383 133.871 167.38C134.65 167.368 135.344 167.375 135.768 167.512C136.163 167.642 136.591 167.633 136.975 167.472C138.432 166.86 138.334 164.765 136.828 164.287C135.757 163.948 134.613 163.965 133.822 163.976C133.666 163.979 133.515 163.981 133.37 163.981H120.235C119.149 163.981 116.302 163.981 114.124 165.695C113.202 166.42 113.308 167.851 114.308 168.462L114.321 168.47Z" fill="#E7AD27"/>
<path d="M135.35 171.555C136.018 171.179 136.709 170.788 137.378 170.356C138.91 169.367 140.595 168.278 141.789 166.891V171.469C140.922 172.12 140.037 172.691 139.225 173.216C138.47 173.703 137.734 174.118 137.023 174.519C135.022 175.649 133.44 176.542 132.286 178.464C131.349 180.022 130.854 181.87 130.861 183.698C130.864 184.527 130.275 185.238 129.456 185.363L129.358 185.378C128.366 185.53 127.464 184.77 127.453 183.766C127.427 181.296 128.085 178.845 129.368 176.71C130.986 174.019 133.204 172.767 135.35 171.555V171.555Z" fill="#E7AD27"/>
<path d="M110.404 165.419L110.379 182.449C110.379 193.12 113.667 194.084 120.507 194.084H133.105C135.966 194.084 137.794 191.724 139.321 189.617C140.943 187.377 142.757 185.302 144.457 183.129C146.143 180.971 147.507 178.521 148.913 176.177C150.629 173.316 152.345 170.455 154.061 167.595C154.969 166.08 155.881 164.559 156.548 162.925C157.031 163.707 157.228 164.628 157.132 165.538C156.991 166.864 156.353 168.078 155.728 169.255C153.037 174.323 150.188 179.282 147.22 184.197C146.019 186.188 144.925 188.228 143.82 190.273C143.45 190.959 143.078 191.646 142.655 192.3C140.513 195.605 137.02 198.091 132.974 198.091H118.658C112.545 198.091 107.589 193.802 107.589 185.969V166.06L110.404 165.419Z" fill="#E7AD27"/>
</svg>
